<?xml version="1.0" encoding="UTF-8" standalone="no"?>
<!-- Created with Inkscape (http://www.inkscape.org/) -->

<svg
   width="38.651115mm"
   height="39.000816mm"
   viewBox="0 0 38.651115 39.000816"
   version="1.1"
   id="svg64"
   inkscape:version="1.1 (c68e22c387, 2021-05-23)"
   sodipodi:docname="final.svg"
   xmlns:inkscape="http://www.inkscape.org/namespaces/inkscape"
   xmlns:sodipodi="http://sodipodi.sourceforge.net/DTD/sodipodi-0.dtd"
   xmlns="http://www.w3.org/2000/svg"
   xmlns:svg="http://www.w3.org/2000/svg">
  <sodipodi:namedview
     id="namedview66"
     pagecolor="#ffffff"
     bordercolor="#666666"
     borderopacity="1.0"
     inkscape:pageshadow="2"
     inkscape:pageopacity="0.0"
     inkscape:pagecheckerboard="0"
     inkscape:document-units="mm"
     showgrid="false"
     inkscape:zoom="2.0712039"
     inkscape:cx="-84.73333"
     inkscape:cy="44.901423"
     inkscape:window-width="1920"
     inkscape:window-height="1002"
     inkscape:window-x="-8"
     inkscape:window-y="-8"
     inkscape:window-maximized="1"
     inkscape:current-layer="layer1" />
  <defs
     id="defs61" />
  <g
     inkscape:label="Слой 1"
     inkscape:groupmode="layer"
     id="layer1"
     transform="translate(-1.6306404,-2.1784246)">
    <rect
       style="fill:#e6c37b;fill-opacity:1;stroke-width:0.539474"
       id="rect32396-2"
       width="38.651115"
       height="39.000816"
       x="1.6306404"
       y="2.1784246"
       ry="3.5254972" />
    <rect
       style="fill:#fe315c;fill-opacity:1;stroke-width:0.27228"
       id="rect32193-8"
       width="20.910254"
       height="20.566736"
       x="3.6635232"
       y="4.2835922"
       ry="1.5620306" />
    <rect
       style="fill:#000000;fill-opacity:1;stroke-width:0.320241"
       id="rect36725-7"
       width="17.907816"
       height="17.783394"
       x="5.1088891"
       y="5.6617622" />
    <g
       aria-label="IJ
"
       transform="scale(1.0112956,0.98883057)"
       id="text1687-5"
       style="font-size:11.313px;line-height:1.25;fill:#ffffff;stroke-width:0.282826">
      <path
         d="M 12.191204,22.018826 H 6.1281142 v -1.56733 H 8.1388328 V 8.2325142 H 6.1281142 V 6.6651848 H 12.191204 V 8.2325142 H 10.180485 V 20.451496 h 2.010719 z"
         style="font-size:21.1177px"
         id="path119" />
      <path
         d="m 21.29615,18.028323 q 0,2.021029 -1.237366,3.114035 -1.227053,1.093006 -3.29964,1.093006 -0.494946,0 -1.319857,-0.0928 -0.82491,-0.08249 -1.381724,-0.206227 V 20.02873 h 0.113425 q 0.422767,0.144359 1.041449,0.29903 0.618683,0.15467 1.2683,0.15467 0.948646,0 1.505461,-0.216539 0.567125,-0.216539 0.835221,-0.618682 0.278407,-0.412455 0.350587,-1.010515 0.08249,-0.59806 0.08249,-1.381725 V 8.2943824 H 16.006413 V 6.6651848 h 5.289737 z"
         style="font-size:21.1177px"
         id="path121" />
    </g>
    <rect
       style="fill:#1577f6;fill-opacity:1;stroke-width:0.367003"
       id="rect32209-9"
       width="34.725273"
       height="12.312115"
       x="3.4161401"
       y="27.341528"
       ry="0.95026165" />
    <g
       aria-label="News"
       transform="matrix(0.97295695,0,0,1.0277947,0.51097497,0.31935936)"
       id="text3409-2"
       style="font-size:13.4475px;line-height:1.25;font-family:'Times New Roman';-inkscape-font-specification:'Times New Roman, ';fill:#ffffff;stroke-width:0.336189">
      <path
         d="m 5.495466,27.696382 h 2.4163477 l 5.4433483,6.677787 V 29.23943 q 0,-0.82077 -0.183852,-1.024322 -0.242948,-0.275778 -0.768241,-0.275778 h -0.30861 v -0.242948 h 3.099229 v 0.242948 h -0.315176 q -0.56469,0 -0.801072,0.34144 -0.144456,0.210117 -0.144456,0.95866 v 7.505123 H 13.696603 L 7.8264536,29.574304 v 5.482746 q 0,0.82077 0.1772864,1.024321 0.2495141,0.275779 0.7682409,0.275779 h 0.3151758 v 0.242948 H 5.9879282 V 36.35715 h 0.3086096 q 0.5712561,0 0.8076379,-0.341441 0.1444556,-0.210117 0.1444556,-0.958659 V 28.865159 Q 6.8612277,28.412093 6.6576767,28.267638 6.4606918,28.123182 6.0732883,27.998425 5.8828696,27.93933 5.495466,27.93933 Z"
         id="path167"
         style="fill:#ffffff" />
      <path
         d="m 16.81553,32.850819 q -0.0066,1.339497 0.65005,2.101172 0.656616,0.761675 1.543048,0.761675 0.590955,0 1.024321,-0.321742 0.439933,-0.328308 0.735411,-1.116248 l 0.203551,0.131323 q -0.13789,0.899565 -0.801072,1.641541 -0.663182,0.73541 -1.661239,0.73541 -1.083417,0 -1.858224,-0.840469 -0.768241,-0.847034 -0.768241,-2.271892 0,-1.543048 0.787939,-2.403215 0.794506,-0.866733 1.989548,-0.866733 1.011189,0 1.661239,0.669748 0.65005,0.663182 0.65005,1.77943 z m 0,-0.380837 h 2.784053 q -0.03283,-0.577823 -0.13789,-0.814204 -0.164154,-0.367706 -0.492462,-0.577823 -0.321742,-0.210117 -0.676314,-0.210117 -0.544992,0 -0.978359,0.426801 -0.4268,0.420234 -0.499028,1.175343 z"
         id="path169"
         style="fill:#ffffff" />
      <path
         d="m 21.438108,30.585493 h 2.521406 v 0.242948 q -0.348006,0.02626 -0.459631,0.124757 -0.105059,0.09849 -0.105059,0.282345 0,0.203551 0.111625,0.492462 l 1.286968,3.460368 1.293534,-2.816884 -0.341441,-0.886432 q -0.157587,-0.393969 -0.413668,-0.544991 -0.144455,-0.09193 -0.538425,-0.111625 v -0.242948 h 2.862847 v 0.242948 q -0.472764,0.0197 -0.669749,0.17072 -0.131323,0.105059 -0.131323,0.334875 0,0.131323 0.05253,0.269212 l 1.365762,3.453802 1.267269,-3.329045 q 0.131323,-0.354572 0.131323,-0.56469 0,-0.124757 -0.131323,-0.223249 -0.124757,-0.09849 -0.499028,-0.111625 v -0.242948 h 1.897621 v 0.242948 q -0.571256,0.08536 -0.840469,0.774807 L 28.08963,36.78395 h -0.269212 l -1.503651,-3.841205 -1.753166,3.841205 h -0.242948 l -1.930451,-5.055945 q -0.190419,-0.47933 -0.374272,-0.643484 -0.183852,-0.17072 -0.577822,-0.25608 z"
         id="path171"
         style="fill:#ffffff" />
      <path
         d="m 35.371505,30.408207 v 2.048642 h -0.216684 q -0.249514,-0.965226 -0.643484,-1.313232 -0.387403,-0.348007 -0.99149,-0.348007 -0.459632,0 -0.741976,0.242948 -0.282345,0.242948 -0.282345,0.538426 0,0.367705 0.210117,0.630351 0.203551,0.269213 0.827336,0.571256 l 0.95866,0.466198 q 1.332931,0.65005 1.332931,1.713768 0,0.82077 -0.623786,1.326365 -0.617219,0.499028 -1.38546,0.499028 -0.551557,0 -1.260703,-0.196985 -0.216683,-0.06566 -0.354573,-0.06566 -0.151021,0 -0.236382,0.17072 H 31.746983 V 34.54489 h 0.216683 q 0.183853,0.919263 0.70258,1.38546 0.518727,0.466198 1.16221,0.466198 0.453066,0 0.735411,-0.262647 0.288911,-0.269213 0.288911,-0.643484 0,-0.453065 -0.321742,-0.761675 -0.315176,-0.308609 -1.267269,-0.781373 -0.952094,-0.472764 -1.247571,-0.853601 -0.295478,-0.374271 -0.295478,-0.945527 0,-0.741977 0.505595,-1.241005 0.512161,-0.499028 1.319798,-0.499028 0.354573,0 0.860168,0.151021 0.334874,0.09849 0.446499,0.09849 0.105058,0 0.164154,-0.04596 0.0591,-0.04596 0.137889,-0.203551 z"
         id="path173"
         style="fill:#ffffff" />
    </g>
    <g
       aria-label="RSS"
       transform="matrix(0,-0.82736418,1.2086576,0,0,0)"
       id="text6395-6"
       style="font-size:13.4257px;line-height:1.25;word-spacing:0px;stroke-width:0.33564">
      <path
         d="m -26.168961,26.982164 v 2.491097 q 0,0.721107 0.08522,0.911217 0.09178,0.183554 0.314664,0.294998 0.222888,0.111444 0.832551,0.111444 v 0.242554 h -4.549529 V 30.79092 q 0.616219,0 0.832551,-0.111444 0.222887,-0.117999 0.308109,-0.301554 0.09178,-0.183554 0.09178,-0.904661 v -5.768856 q 0,-0.721107 -0.09178,-0.904661 -0.08522,-0.19011 -0.308109,-0.301554 -0.222888,-0.111444 -0.832551,-0.111444 v -0.242554 h 4.129976 q 1.612657,0 2.359986,0.222888 0.747329,0.222887 1.219327,0.825995 0.471997,0.596552 0.471997,1.402881 0,0.983327 -0.707996,1.625768 -0.452331,0.406442 -1.265215,0.609663 l 2.137099,3.008983 q 0.419553,0.583441 0.596552,0.727662 0.268776,0.203221 0.622774,0.222888 v 0.242554 h -2.799206 l -2.864761,-4.05131 z m 0,-4.359419 v 3.893977 h 0.373664 q 0.911217,0 1.363548,-0.163888 0.452331,-0.170443 0.707996,-0.603107 0.262221,-0.43922 0.262221,-1.14066 0,-1.016106 -0.478553,-1.501214 -0.471997,-0.485108 -1.527436,-0.485108 z"
         style="font-weight:bold;font-family:'Times New Roman';-inkscape-font-specification:'Times New Roman,  Bold'"
         id="path142" />
      <path
         d="m -13.733144,21.940971 0.07211,2.963094 h -0.268776 q -0.19011,-1.114438 -0.937439,-1.789656 -0.740774,-0.681774 -1.606102,-0.681774 -0.668663,0 -1.061994,0.360553 -0.386776,0.353998 -0.386776,0.81944 0,0.294998 0.137666,0.524441 0.19011,0.30811 0.609663,0.609664 0.30811,0.216332 1.422548,0.766995 1.560213,0.766996 2.104321,1.448769 0.537552,0.681774 0.537552,1.560214 0,1.114438 -0.871883,1.920766 -0.865329,0.799774 -2.202654,0.799774 -0.419553,0 -0.793218,-0.08522 -0.373664,-0.08522 -0.937439,-0.321221 -0.314665,-0.13111 -0.517886,-0.13111 -0.170443,0 -0.360553,0.13111 -0.19011,0.131111 -0.30811,0.399887 h -0.242554 V 27.88027 h 0.242554 q 0.288443,1.415992 1.107883,2.163321 0.825995,0.740773 1.776545,0.740773 0.734218,0 1.166882,-0.399886 0.43922,-0.399887 0.43922,-0.930884 0,-0.314665 -0.170444,-0.609663 -0.163888,-0.294998 -0.504774,-0.557219 -0.340887,-0.268776 -1.206216,-0.694885 -1.21277,-0.596552 -1.743767,-1.016105 -0.530997,-0.419553 -0.81944,-0.937439 -0.281887,-0.517886 -0.281887,-1.14066 0,-1.061994 0.780106,-1.809323 0.780107,-0.747329 1.966656,-0.747329 0.432664,0 0.839106,0.104888 0.308109,0.07867 0.747329,0.294999 0.445775,0.209776 0.622774,0.209776 0.170443,0 0.268776,-0.104888 0.09833,-0.104888 0.183555,-0.504775 z"
         style="font-weight:bold;font-family:'Times New Roman';-inkscape-font-specification:'Times New Roman,  Bold'"
         id="path144" />
      <path
         d="m -6.2664089,21.940971 0.072111,2.963094 h -0.2687762 q -0.19011,-1.114438 -0.937439,-1.789656 -0.7407735,-0.681774 -1.6061018,-0.681774 -0.6686628,0 -1.0619938,0.360553 -0.386776,0.353998 -0.386776,0.81944 0,0.294998 0.137666,0.524441 0.19011,0.30811 0.6096634,0.609664 0.3081093,0.216332 1.4225473,0.766995 1.5602132,0.766996 2.1043212,1.448769 0.5375524,0.681774 0.5375524,1.560214 0,1.114438 -0.8718838,1.920766 -0.8653284,0.799774 -2.202654,0.799774 -0.4195531,0 -0.7932176,-0.08522 -0.3736645,-0.08522 -0.9374389,-0.321221 -0.314665,-0.13111 -0.517886,-0.13111 -0.170443,0 -0.360553,0.13111 -0.190111,0.131111 -0.30811,0.399887 h -0.242554 V 27.88027 h 0.242554 q 0.288443,1.415992 1.107883,2.163321 0.8259949,0.740773 1.776545,0.740773 0.7342179,0 1.1668821,-0.399886 0.4392197,-0.399887 0.4392197,-0.930884 0,-0.314665 -0.1704435,-0.609663 -0.1638879,-0.294998 -0.5047748,-0.557219 -0.340887,-0.268776 -1.2062153,-0.694885 -1.2127712,-0.596552 -1.7437672,-1.016105 -0.530997,-0.419553 -0.81944,-0.937439 -0.281887,-0.517886 -0.281887,-1.14066 0,-1.061994 0.780106,-1.809323 0.780107,-0.747329 1.9666554,-0.747329 0.4326642,0 0.8391063,0.104888 0.3081093,0.07867 0.747329,0.294999 0.4457752,0.209776 0.6227742,0.209776 0.1704435,0 0.2687762,-0.104888 0.098333,-0.104888 0.1835545,-0.504775 z"
         style="font-weight:bold;font-family:'Times New Roman';-inkscape-font-specification:'Times New Roman,  Bold'"
         id="path146" />
    </g>
  </g>
</svg>
