<?xml version="1.0" encoding="UTF-8" standalone="no"?>
<!-- Created with Inkscape (http://www.inkscape.org/) -->

<svg
   width="38.651115mm"
   height="39.000816mm"
   viewBox="0 0 38.651115 39.000816"
   version="1.1"
   id="svg64"
   inkscape:version="1.1 (c68e22c387, 2021-05-23)"
   sodipodi:docname="final3.svg"
   xmlns:inkscape="http://www.inkscape.org/namespaces/inkscape"
   xmlns:sodipodi="http://sodipodi.sourceforge.net/DTD/sodipodi-0.dtd"
   xmlns="http://www.w3.org/2000/svg"
   xmlns:svg="http://www.w3.org/2000/svg">
  <sodipodi:namedview
     id="namedview66"
     pagecolor="#ffffff"
     bordercolor="#666666"
     borderopacity="1.0"
     inkscape:pageshadow="2"
     inkscape:pageopacity="0.0"
     inkscape:pagecheckerboard="0"
     inkscape:document-units="mm"
     showgrid="false"
     inkscape:zoom="2.9291246"
     inkscape:cx="42.504166"
     inkscape:cy="86.032529"
     inkscape:window-width="1920"
     inkscape:window-height="1002"
     inkscape:window-x="-8"
     inkscape:window-y="-8"
     inkscape:window-maximized="1"
     inkscape:current-layer="text1102" />
  <defs
     id="defs61" />
  <g
     inkscape:label="Слой 1"
     inkscape:groupmode="layer"
     id="layer1"
     transform="translate(-1.6306404,-2.1784246)">
    <rect
       style="fill:#e6c37b;fill-opacity:1;stroke-width:0.539474"
       id="rect32396-2"
       width="38.651115"
       height="39.000816"
       x="1.6306404"
       y="2.1784246"
       ry="3.5254972" />
    <rect
       style="fill:#fe315c;fill-opacity:1;stroke-width:0.360077"
       id="rect32193-8"
       width="34.88393"
       height="21.56035"
       x="3.6635232"
       y="4.2835922"
       ry="1.6374949" />
    <rect
       style="fill:#000000;fill-opacity:1;stroke-width:0.447138"
       id="rect36725-7"
       width="32.137165"
       height="19.318977"
       x="5.1088891"
       y="5.3907766" />
    <g
       aria-label="IJ "
       transform="scale(1.0112956,0.98883057)"
       id="text1687-5"
       style="font-size:11.313px;line-height:1.25;fill:#ffffff;stroke-width:0.282826" />
    <rect
       style="fill:#1577f6;fill-opacity:1;stroke-width:0.369856"
       id="rect32209-9"
       width="35.267242"
       height="12.312115"
       x="3.4161401"
       y="27.341528"
       ry="0.95026165" />
    <g
       aria-label="News"
       transform="matrix(0.97295695,0,0,1.0277947,0.51097497,0.31935936)"
       id="text3409-2"
       style="font-size:13.4475px;line-height:1.25;font-family:'Times New Roman';-inkscape-font-specification:'Times New Roman, ';fill:#ffffff;stroke-width:0.336189">
      <path
         d="m 5.495466,27.696382 h 2.4163477 l 5.4433483,6.677787 V 29.23943 q 0,-0.82077 -0.183852,-1.024322 -0.242948,-0.275778 -0.768241,-0.275778 h -0.30861 v -0.242948 h 3.099229 v 0.242948 h -0.315176 q -0.56469,0 -0.801072,0.34144 -0.144456,0.210117 -0.144456,0.95866 v 7.505123 H 13.696603 L 7.8264536,29.574304 v 5.482746 q 0,0.82077 0.1772864,1.024321 0.2495141,0.275779 0.7682409,0.275779 h 0.3151758 v 0.242948 H 5.9879282 V 36.35715 h 0.3086096 q 0.5712561,0 0.8076379,-0.341441 0.1444556,-0.210117 0.1444556,-0.958659 V 28.865159 Q 6.8612277,28.412093 6.6576767,28.267638 6.4606918,28.123182 6.0732883,27.998425 5.8828696,27.93933 5.495466,27.93933 Z"
         id="path167"
         style="fill:#ffffff" />
      <path
         d="m 16.81553,32.850819 q -0.0066,1.339497 0.65005,2.101172 0.656616,0.761675 1.543048,0.761675 0.590955,0 1.024321,-0.321742 0.439933,-0.328308 0.735411,-1.116248 l 0.203551,0.131323 q -0.13789,0.899565 -0.801072,1.641541 -0.663182,0.73541 -1.661239,0.73541 -1.083417,0 -1.858224,-0.840469 -0.768241,-0.847034 -0.768241,-2.271892 0,-1.543048 0.787939,-2.403215 0.794506,-0.866733 1.989548,-0.866733 1.011189,0 1.661239,0.669748 0.65005,0.663182 0.65005,1.77943 z m 0,-0.380837 h 2.784053 q -0.03283,-0.577823 -0.13789,-0.814204 -0.164154,-0.367706 -0.492462,-0.577823 -0.321742,-0.210117 -0.676314,-0.210117 -0.544992,0 -0.978359,0.426801 -0.4268,0.420234 -0.499028,1.175343 z"
         id="path169"
         style="fill:#ffffff" />
      <path
         d="m 21.438108,30.585493 h 2.521406 v 0.242948 q -0.348006,0.02626 -0.459631,0.124757 -0.105059,0.09849 -0.105059,0.282345 0,0.203551 0.111625,0.492462 l 1.286968,3.460368 1.293534,-2.816884 -0.341441,-0.886432 q -0.157587,-0.393969 -0.413668,-0.544991 -0.144455,-0.09193 -0.538425,-0.111625 v -0.242948 h 2.862847 v 0.242948 q -0.472764,0.0197 -0.669749,0.17072 -0.131323,0.105059 -0.131323,0.334875 0,0.131323 0.05253,0.269212 l 1.365762,3.453802 1.267269,-3.329045 q 0.131323,-0.354572 0.131323,-0.56469 0,-0.124757 -0.131323,-0.223249 -0.124757,-0.09849 -0.499028,-0.111625 v -0.242948 h 1.897621 v 0.242948 q -0.571256,0.08536 -0.840469,0.774807 L 28.08963,36.78395 h -0.269212 l -1.503651,-3.841205 -1.753166,3.841205 h -0.242948 l -1.930451,-5.055945 q -0.190419,-0.47933 -0.374272,-0.643484 -0.183852,-0.17072 -0.577822,-0.25608 z"
         id="path171"
         style="fill:#ffffff" />
      <path
         d="m 35.371505,30.408207 v 2.048642 h -0.216684 q -0.249514,-0.965226 -0.643484,-1.313232 -0.387403,-0.348007 -0.99149,-0.348007 -0.459632,0 -0.741976,0.242948 -0.282345,0.242948 -0.282345,0.538426 0,0.367705 0.210117,0.630351 0.203551,0.269213 0.827336,0.571256 l 0.95866,0.466198 q 1.332931,0.65005 1.332931,1.713768 0,0.82077 -0.623786,1.326365 -0.617219,0.499028 -1.38546,0.499028 -0.551557,0 -1.260703,-0.196985 -0.216683,-0.06566 -0.354573,-0.06566 -0.151021,0 -0.236382,0.17072 H 31.746983 V 34.54489 h 0.216683 q 0.183853,0.919263 0.70258,1.38546 0.518727,0.466198 1.16221,0.466198 0.453066,0 0.735411,-0.262647 0.288911,-0.269213 0.288911,-0.643484 0,-0.453065 -0.321742,-0.761675 -0.315176,-0.308609 -1.267269,-0.781373 -0.952094,-0.472764 -1.247571,-0.853601 -0.295478,-0.374271 -0.295478,-0.945527 0,-0.741977 0.505595,-1.241005 0.512161,-0.499028 1.319798,-0.499028 0.354573,0 0.860168,0.151021 0.334874,0.09849 0.446499,0.09849 0.105058,0 0.164154,-0.04596 0.0591,-0.04596 0.137889,-0.203551 z"
         id="path173"
         style="fill:#ffffff" />
    </g>
  </g>
  <g
     inkscape:groupmode="layer"
     id="layer2"
     inkscape:label="Слой 2">
    <g
       aria-label="IDE"
       transform="matrix(0.84368024,0,0,1.1852832,-1.6306404,-2.1784246)"
       id="text1102"
       style="font-size:18.1915px;line-height:1.25;fill:#ffffff;stroke-width:0.454787">
      <path
         d="M 15.122504,19.273516 H 7.3769049 V 16.928518 H 9.5442515 V 8.3923696 H 7.3769049 v -2.344998 h 7.7455991 v 2.344998 h -2.167346 v 8.5361484 h 2.167346 z"
         style="font-weight:bold;-inkscape-font-specification:'sans-serif Bold'"
         id="path10162" />
      <path
         d="m 30.400521,12.673768 q 0,1.847574 -0.843844,3.313197 -0.843844,1.456742 -2.131816,2.238408 -0.9682,0.586249 -2.122934,0.817196 -1.154734,0.230947 -2.735831,0.230947 H 17.902748 V 6.0473716 h 4.796587 q 1.616627,0 2.789126,0.2753596 1.172499,0.2664771 1.97193,0.7639009 1.367916,0.8349614 2.149582,2.2561723 0.790548,1.4123286 0.790548,3.3309636 z m -3.526379,-0.02665 q 0,-1.305738 -0.479659,-2.229525 Q 25.923707,9.4849255 24.893329,8.960854 24.369257,8.7032595 23.818538,8.6144338 23.276701,8.5167256 22.175263,8.5167256 h -0.861609 v 8.2785534 h 0.861609 q 1.216912,0 1.785396,-0.106591 0.568485,-0.115473 1.110321,-0.408598 0.93267,-0.532954 1.367916,-1.421211 0.435246,-0.897139 0.435246,-2.211759 z"
         style="font-weight:bold;-inkscape-font-specification:'sans-serif Bold'"
         id="path10164" />
      <path
         d="M 42.569639,19.273516 H 33.003113 V 6.0473716 h 9.566526 v 2.5581797 h -6.173385 v 2.2828197 h 5.729257 v 2.55818 h -5.729257 v 3.268785 h 6.173385 z"
         style="font-weight:bold;-inkscape-font-specification:'sans-serif Bold'"
         id="path10166" />
    </g>
  </g>
</svg>
