<?xml version="1.0" encoding="UTF-8" standalone="no"?>
<!-- Created with Inkscape (http://www.inkscape.org/) -->

<svg
   width="31.517824mm"
   height="32.247013mm"
   viewBox="0 0 31.517824 32.247013"
   version="1.1"
   id="svg208"
   inkscape:version="1.1 (c68e22c387, 2021-05-23)"
   sodipodi:docname="final2.svg"
   inkscape:export-filename="C:\Users\mikha\inkscape\final2.png"
   inkscape:export-xdpi="96"
   inkscape:export-ydpi="96"
   xmlns:inkscape="http://www.inkscape.org/namespaces/inkscape"
   xmlns:sodipodi="http://sodipodi.sourceforge.net/DTD/sodipodi-0.dtd"
   xmlns="http://www.w3.org/2000/svg"
   xmlns:svg="http://www.w3.org/2000/svg">
  <sodipodi:namedview
     id="namedview210"
     pagecolor="#ffffff"
     bordercolor="#666666"
     borderopacity="1.0"
     inkscape:pageshadow="2"
     inkscape:pageopacity="0.0"
     inkscape:pagecheckerboard="0"
     inkscape:document-units="mm"
     showgrid="false"
     inkscape:zoom="2.0712039"
     inkscape:cx="68.800566"
     inkscape:cy="92.69971"
     inkscape:window-width="1920"
     inkscape:window-height="1002"
     inkscape:window-x="-8"
     inkscape:window-y="-8"
     inkscape:window-maximized="1"
     inkscape:current-layer="layer1" />
  <defs
     id="defs205" />
  <g
     inkscape:label="Слой 1"
     inkscape:groupmode="layer"
     id="layer1"
     transform="translate(-1.7438325,-1.5011079)">
    <rect
       style="fill:#fe315c;fill-opacity:1;stroke-width:0.27228"
       id="rect32193"
       width="20.910254"
       height="20.566736"
       x="1.7438325"
       y="1.5566957"
       ry="1.5620306" />
    <rect
       style="fill:#1577f6;fill-opacity:1;stroke-width:0.262517"
       id="rect32209"
       width="10.607572"
       height="20.622334"
       x="22.654085"
       y="1.5011079"
       ry="1.5916529" />
    <rect
       style="fill:#00cd5a;fill-opacity:1;stroke-width:0.265963"
       id="rect32396"
       width="31.517824"
       height="11.624681"
       x="1.7438325"
       y="22.123438"
       ry="1.0508186" />
    <rect
       style="fill:#000000;fill-opacity:1;stroke-width:0.320241"
       id="rect36725"
       width="17.907816"
       height="17.783394"
       x="3.1891947"
       y="2.9348695" />
    <rect
       style="fill:#00cd5a;fill-opacity:1;stroke-width:0.30115"
       id="rect36883"
       width="29.508804"
       height="9.8473864"
       x="2.7309027"
       y="23.325891" />
    <g
       aria-label="IJ             "
       transform="scale(1.0112956,0.98883057)"
       id="text1687"
       style="font-size:11.313px;line-height:1.25;fill:#ffffff;stroke-width:0.282826">
      <path
         d="M 10.292955,19.261135 H 4.2298655 V 17.693806 H 6.2405841 V 5.4748237 H 4.2298655 V 3.9074944 H 10.292955 V 5.4748237 H 8.2822368 V 17.693806 h 2.0107182 z"
         style="font-size:21.1177px"
         id="path4216" />
      <path
         d="m 19.397901,15.270632 q 0,2.02103 -1.237365,3.114036 -1.227054,1.093006 -3.299641,1.093006 -0.494946,0 -1.319856,-0.0928 -0.82491,-0.08249 -1.381725,-0.206228 v -1.907605 h 0.113425 q 0.422767,0.14436 1.041449,0.29903 0.618683,0.154671 1.2683,0.154671 0.948647,0 1.505461,-0.216539 0.567126,-0.216539 0.835221,-0.618683 0.278408,-0.412455 0.350587,-1.010515 0.08249,-0.59806 0.08249,-1.381724 V 5.536692 H 14.108165 V 3.9074944 h 5.289736 z"
         style="font-size:21.1177px"
         id="path4218" />
    </g>
    <g
       aria-label="News"
       transform="scale(0.9136037,1.0945665)"
       id="text3409"
       style="font-size:12.7171px;line-height:1.25;font-family:'Times New Roman';-inkscape-font-specification:'Times New Roman, ';fill:#ffffff;stroke-width:0.31793">
      <path
         d="m 3.3929841,29.02847 0.8704148,-0.316514 q 0.090433,-0.03391 0.1526052,-0.09609 0.062172,-0.06217 0.062172,-0.180866 v -6.10986 q 0,-0.118693 -0.062172,-0.180865 -0.062172,-0.06217 -0.1526052,-0.09043 L 3.3590718,21.759941 v -0.412599 h 2.3229903 l 3.9225189,5.589872 0.435207,0.729113 h 0.09043 v -5.318573 q 0,-0.113041 -0.06782,-0.169562 Q 9.994572,22.11602 9.9041393,22.08776 L 9.0450286,21.759941 v -0.412599 h 2.9221074 v 0.412599 l -0.864763,0.327819 q -0.07913,0.02826 -0.152605,0.09043 -0.06783,0.05652 -0.06783,0.169562 v 5.849866 l -0.169561,1.311274 H 10.039788 L 5.7724948,23.449902 5.3372874,22.709484 h -0.090433 v 5.725521 q 0,0.124345 0.067824,0.186518 0.067825,0.06217 0.1469531,0.09043 l 0.8534588,0.316514 v 0.423904 h -2.922107 z"
         style="font-family:'Sitka Text';-inkscape-font-specification:'Sitka Text'"
         id="path4264" />
      <path
         d="m 18.252177,27.97719 v 0.649985 q -0.209126,0.169561 -0.491728,0.344775 -0.27695,0.169561 -0.604769,0.30521 -0.327818,0.135649 -0.695201,0.22043 -0.367383,0.08478 -0.751722,0.08478 -0.616073,0 -1.153017,-0.203474 -0.531292,-0.203474 -0.921284,-0.599117 -0.389991,-0.401295 -0.616072,-0.983456 -0.22043,-0.587812 -0.22043,-1.350838 0,-0.678246 0.209126,-1.266058 0.214777,-0.593465 0.599116,-1.028672 0.389991,-0.44086 0.926936,-0.68955 0.542596,-0.24869 1.192581,-0.24869 0.599117,0 1.068236,0.197822 0.474772,0.192169 0.802591,0.519988 0.327818,0.327819 0.49738,0.768678 0.175213,0.44086 0.175213,0.921283 0,0.05652 -0.0057,0.135649 0,0.07913 -0.0057,0.169562 -0.0057,0.08478 -0.01696,0.169561 -0.0113,0.07913 -0.02261,0.135649 h -4.244686 q 0,1.24345 0.559553,1.870827 0.559552,0.627377 1.57692,0.627377 0.327819,0 0.621725,-0.07348 0.299558,-0.07913 0.548248,-0.192169 0.254342,-0.113041 0.457816,-0.243038 0.209125,-0.135649 0.356079,-0.243038 z m -1.18693,-2.334294 q 0,-0.4126 -0.07913,-0.74607 -0.07348,-0.339123 -0.243038,-0.576509 -0.163909,-0.237386 -0.435207,-0.361731 -0.265647,-0.129997 -0.649986,-0.129997 -0.339122,0 -0.627377,0.124345 -0.282602,0.118693 -0.503032,0.356079 -0.214777,0.231734 -0.350426,0.570856 -0.135649,0.333471 -0.169562,0.763027 z"
         style="font-family:'Sitka Text';-inkscape-font-specification:'Sitka Text'"
         id="path4266" />
      <path
         d="m 19.834729,24.258145 q -0.03956,-0.101737 -0.118693,-0.16391 -0.07913,-0.06782 -0.180866,-0.113041 l -0.452163,-0.203473 v -0.406947 h 2.696025 v 0.406947 l -0.847807,0.27695 1.141713,3.159493 0.226082,0.893023 h 0.09609 l 1.175625,-3.447747 0.548248,-1.288666 h 0.672594 l 1.413011,3.820782 0.254342,0.915631 h 0.09608 l 1.305623,-3.882955 -0.791286,-0.446511 v -0.406947 h 2.272121 v 0.406947 l -0.474771,0.339122 q -0.09609,0.06217 -0.186518,0.129998 -0.08478,0.06217 -0.113041,0.158257 l -1.35649,3.84339 -0.599117,1.260406 h -0.683897 l -1.458228,-3.905563 -0.180865,-0.74607 h -0.07913 l -1.153017,3.391227 -0.593465,1.260406 H 21.77338 Z"
         style="font-family:'Sitka Text';-inkscape-font-specification:'Sitka Text'"
         id="path4268" />
      <path
         d="m 30.262731,27.751108 h 0.666941 l 0.180866,0.548248 q 0.03956,0.113041 0.107389,0.19217 0.07348,0.07913 0.152605,0.124345 0.118693,0.06782 0.254342,0.118693 0.135649,0.05087 0.282602,0.09043 0.152605,0.03956 0.310863,0.06217 0.158257,0.02261 0.316514,0.02261 0.231734,0 0.46912,-0.05087 0.243038,-0.05087 0.440859,-0.163909 0.197822,-0.118693 0.316515,-0.293907 0.124345,-0.180865 0.124345,-0.429555 0,-0.209126 -0.06782,-0.356079 -0.06217,-0.146953 -0.186517,-0.254342 -0.124345,-0.107389 -0.305211,-0.180865 -0.180865,-0.07913 -0.412599,-0.146954 -0.322166,-0.09043 -0.638681,-0.180865 -0.310862,-0.09043 -0.616073,-0.180865 -0.322166,-0.09609 -0.565204,-0.254342 -0.243038,-0.158258 -0.4126,-0.367383 -0.163909,-0.214778 -0.248689,-0.463468 -0.08478,-0.254342 -0.08478,-0.536944 0,-0.401295 0.203473,-0.734766 0.209126,-0.339123 0.553901,-0.582161 0.350427,-0.248689 0.80259,-0.384339 0.452164,-0.135649 0.949544,-0.135649 0.259994,0 0.491727,0.01696 0.231734,0.01696 0.44086,0.05652 0.214778,0.03391 0.412599,0.08478 0.203474,0.04522 0.418252,0.107388 l 0.02261,1.46388 h -0.672594 l -0.186517,-0.587813 q -0.03391,-0.09043 -0.107389,-0.163909 -0.07348,-0.07348 -0.152605,-0.113041 -0.197822,-0.09609 -0.429556,-0.141301 -0.231733,-0.04522 -0.486075,-0.04522 -0.259994,0 -0.480424,0.05652 -0.214778,0.05087 -0.378687,0.152605 -0.163909,0.101737 -0.254342,0.259994 -0.09043,0.152606 -0.09043,0.356079 0,0.214778 0.06217,0.373035 0.06782,0.152605 0.203473,0.27695 0.135649,0.124345 0.339123,0.22043 0.203474,0.09043 0.480424,0.175213 0.129997,0.03956 0.265646,0.08478 0.135649,0.03956 0.265646,0.07913 0.135649,0.03391 0.265646,0.07913 0.129997,0.03957 0.254342,0.07348 0.350427,0.107389 0.616073,0.243038 0.265646,0.135649 0.440859,0.322166 0.180866,0.180866 0.265646,0.423904 0.09043,0.237386 0.09043,0.5539 0,0.457816 -0.22043,0.825199 -0.220429,0.367382 -0.58216,0.627377 -0.361731,0.254342 -0.830851,0.384339 -0.469119,0.135649 -0.955195,0.135649 -0.316515,0 -0.604769,-0.03391 -0.288254,-0.03391 -0.548248,-0.09608 -0.259994,-0.05652 -0.49738,-0.124345 -0.237386,-0.07348 -0.452164,-0.146954 z"
         style="font-family:'Sitka Text';-inkscape-font-specification:'Sitka Text'"
         id="path4270" />
    </g>
    <g
       aria-label="RSS"
       transform="matrix(0,-0.85935127,1.1636685,0,0,0)"
       id="text6395"
       style="font-size:11.0319px;line-height:1.25;fill:#ffffff;stroke-width:0.275796">
      <path
         d="m -23.920293,27.197954 0.755072,-0.289281 q 0.07355,-0.02942 0.12748,-0.08335 0.05393,-0.05393 0.05393,-0.161802 v -5.133511 q 0,-0.09806 -0.05393,-0.151995 -0.05393,-0.05393 -0.12748,-0.07845 l -0.755072,-0.289281 V 20.58862 h 3.530208 q 0.539337,0 0.946292,0.07355 0.406954,0.07355 0.696235,0.201025 0.294184,0.12748 0.485404,0.299087 0.191219,0.166705 0.299087,0.36773 0.11277,0.196123 0.156898,0.411858 0.04413,0.210832 0.04413,0.426567 0,0.406954 -0.12748,0.715848 -0.12748,0.308893 -0.328506,0.534434 -0.201025,0.220638 -0.451082,0.372633 -0.250056,0.147092 -0.490307,0.235347 l 1.647431,2.412309 q 0.03432,0.04413 0.07355,0.09806 0.04413,0.04903 0.09316,0.09316 0.05393,0.04413 0.107868,0.08335 0.05884,0.03432 0.11277,0.04903 l 0.750169,0.235347 v 0.421663 h -1.799425 q -0.250056,0 -0.397149,-0.03922 -0.147092,-0.03923 -0.250056,-0.117674 -0.102964,-0.08335 -0.186316,-0.210832 -0.07845,-0.127479 -0.196123,-0.30399 l -1.490532,-2.275023 -0.666818,-0.171607 v 2.162252 q 0,0.107868 0.05393,0.161802 0.05393,0.05393 0.137286,0.08335 l 0.769782,0.289281 v 0.421663 h -3.520402 z m 3.265442,-3.289958 q 0.30399,0 0.524628,-0.107868 0.220638,-0.11277 0.362827,-0.289281 0.142189,-0.17651 0.210832,-0.406954 0.06864,-0.230444 0.06864,-0.470695 0,-0.642301 -0.323602,-0.936485 -0.323603,-0.294184 -0.941389,-0.294184 h -0.607981 v 2.44663 q 0.03923,0.0098 0.132383,0.01961 0.09316,0.0098 0.201026,0.01961 0.107867,0.0098 0.210832,0.01471 0.102964,0.0049 0.161801,0.0049 z"
         style="font-weight:bold;font-family:'Sitka Text';-inkscape-font-specification:'Sitka Text Bold'"
         id="path4239" />
      <path
         d="m -13.496391,27.786322 q -0.274572,0 -0.598174,-0.03922 -0.323603,-0.03922 -0.657011,-0.102964 -0.333409,-0.06374 -0.666817,-0.142189 -0.328506,-0.07845 -0.617787,-0.161801 l -0.02942,-2.064191 h 0.652108 l 0.289281,0.936485 q 0.01471,0.03922 0.03922,0.07355 0.02942,0.03432 0.05884,0.06864 0.03432,0.03432 0.06374,0.06374 0.03432,0.02452 0.05884,0.04413 0.12748,0.07845 0.313796,0.166704 0.186317,0.08826 0.387342,0.161801 0.205929,0.07355 0.411858,0.122577 0.205929,0.04413 0.377536,0.04413 0.313796,0 0.573659,-0.06864 0.259863,-0.07355 0.446179,-0.205929 0.19122,-0.137286 0.294184,-0.3187 0.102964,-0.186316 0.102964,-0.41676 0,-0.205929 -0.06374,-0.353021 -0.06374,-0.147092 -0.186317,-0.25496 -0.122577,-0.11277 -0.299087,-0.196122 -0.171607,-0.08826 -0.392245,-0.176511 -0.205929,-0.08335 -0.416761,-0.147092 -0.205929,-0.06374 -0.406955,-0.122576 -0.201025,-0.06374 -0.402051,-0.122577 -0.201026,-0.06374 -0.392245,-0.137286 -0.303991,-0.117674 -0.554047,-0.289281 -0.245153,-0.17651 -0.421664,-0.406954 -0.17651,-0.230445 -0.274571,-0.519725 -0.09316,-0.289281 -0.09316,-0.642302 0,-0.323603 0.102965,-0.607981 0.102964,-0.28928 0.284378,-0.524628 0.186316,-0.24025 0.441276,-0.43147 0.254959,-0.191219 0.558949,-0.318699 0.30399,-0.132383 0.647205,-0.201026 0.343215,-0.06864 0.706042,-0.06864 0.308893,0 0.632495,0.02942 0.328506,0.02451 0.637399,0.07355 0.313796,0.04413 0.593271,0.102964 0.279475,0.05393 0.505016,0.107868 v 1.990645 h -0.647205 l -0.279475,-0.882552 q -0.02451,-0.07355 -0.09316,-0.137286 -0.06864,-0.06864 -0.12748,-0.107868 -0.07355,-0.04413 -0.210832,-0.102964 -0.137285,-0.06374 -0.308893,-0.117674 -0.171607,-0.05393 -0.353021,-0.08826 -0.181413,-0.03922 -0.343214,-0.03922 -0.299087,0 -0.524628,0.07845 -0.225542,0.07355 -0.38244,0.196122 -0.151995,0.117674 -0.230444,0.274572 -0.07355,0.156898 -0.07355,0.313796 0,0.171608 0.04413,0.3187 0.04903,0.147092 0.166704,0.269668 0.117674,0.122577 0.308893,0.230445 0.19122,0.102964 0.475598,0.201025 0.196122,0.06374 0.382439,0.122577 0.19122,0.05884 0.387342,0.117674 0.196123,0.05884 0.397149,0.127479 0.201025,0.06864 0.426566,0.156899 0.274572,0.11277 0.524629,0.264765 0.250056,0.151995 0.441276,0.36773 0.191219,0.215735 0.30399,0.509919 0.11277,0.289281 0.11277,0.67172 0,0.455985 -0.191219,0.872746 -0.186317,0.416761 -0.568756,0.740363 -0.382439,0.3187 -0.965904,0.509919 -0.583465,0.186317 -1.377762,0.186317 z"
         style="font-weight:bold;font-family:'Sitka Text';-inkscape-font-specification:'Sitka Text Bold'"
         id="path4241" />
      <path
         d="m -6.8380458,27.786322 q -0.2745717,0 -0.5981741,-0.03922 -0.3236024,-0.03922 -0.657011,-0.102964 -0.3334085,-0.06374 -0.6668171,-0.142189 -0.3285055,-0.07845 -0.6177864,-0.161801 l -0.029418,-2.064191 h 0.6521079 l 0.2892809,0.936485 q 0.014709,0.03922 0.039225,0.07355 0.029418,0.03432 0.058837,0.06864 0.034321,0.03432 0.06374,0.06374 0.034322,0.02452 0.058837,0.04413 0.1274798,0.07845 0.3137963,0.166704 0.1863166,0.08826 0.3873423,0.161801 0.2059288,0.07355 0.4118576,0.122577 0.2059288,0.04413 0.3775362,0.04413 0.3137962,0 0.5736588,-0.06864 0.2598625,-0.07355 0.4461791,-0.205929 0.1912196,-0.137286 0.294184,-0.3187 0.1029644,-0.186316 0.1029644,-0.41676 0,-0.205929 -0.06374,-0.353021 -0.06374,-0.147092 -0.1863165,-0.25496 -0.1225767,-0.11277 -0.2990871,-0.196122 -0.1716073,-0.08826 -0.3922453,-0.176511 -0.2059289,-0.08335 -0.4167607,-0.147092 -0.2059288,-0.06374 -0.4069546,-0.122576 -0.2010257,-0.06374 -0.4020515,-0.122577 -0.2010257,-0.06374 -0.3922453,-0.137286 -0.3039902,-0.117674 -0.5540466,-0.289281 -0.2451533,-0.17651 -0.4216637,-0.406954 -0.1765104,-0.230445 -0.2745718,-0.519725 -0.093158,-0.289281 -0.093158,-0.642302 0,-0.323603 0.1029644,-0.607981 0.1029644,-0.28928 0.2843779,-0.524628 0.1863165,-0.24025 0.441276,-0.43147 0.2549594,-0.191219 0.5589496,-0.318699 0.3039901,-0.132383 0.6472048,-0.201026 0.3432147,-0.06864 0.7060416,-0.06864 0.3088933,0 0.6324957,0.02942 0.3285054,0.02451 0.6373987,0.07355 0.3137962,0.04413 0.593271,0.102964 0.2794749,0.05393 0.5050159,0.107868 v 1.990645 h -0.6472048 l -0.2794748,-0.882552 q -0.024515,-0.07355 -0.093158,-0.137286 -0.068643,-0.06864 -0.1274797,-0.107868 -0.073546,-0.04413 -0.2108319,-0.102964 -0.1372859,-0.06374 -0.3088932,-0.117674 -0.1716073,-0.05393 -0.3530208,-0.08826 -0.1814135,-0.03922 -0.3432147,-0.03922 -0.2990871,0 -0.5246281,0.07845 -0.2255411,0.07355 -0.3824393,0.196122 -0.151995,0.117674 -0.2304441,0.274572 -0.073546,0.156898 -0.073546,0.313796 0,0.171608 0.044128,0.3187 0.049031,0.147092 0.1667043,0.269668 0.1176736,0.122577 0.3088932,0.230445 0.1912196,0.102964 0.4755975,0.201025 0.1961226,0.06374 0.3824392,0.122577 0.1912196,0.05884 0.3873423,0.117674 0.1961226,0.05884 0.3971484,0.127479 0.2010257,0.06864 0.4265668,0.156899 0.2745717,0.11277 0.5246281,0.264765 0.2500565,0.151995 0.4412761,0.36773 0.1912196,0.215735 0.3039901,0.509919 0.1127705,0.289281 0.1127705,0.67172 0,0.455985 -0.1912196,0.872746 -0.1863165,0.416761 -0.5687557,0.740363 -0.3824392,0.3187 -0.9659042,0.509919 -0.5834649,0.186317 -1.3777618,0.186317 z"
         style="font-weight:bold;font-family:'Sitka Text';-inkscape-font-specification:'Sitka Text Bold'"
         id="path4243" />
    </g>
  </g>
</svg>
